/* XPM */
static char *Rw60YExp[] = {
/* columns rows colors chars-per-pixel */
"32 32 71 1 ",
"  c #05A5E3",
". c #0AA6E3",
"X c #0FA8E4",
"o c #14AAE4",
"O c #1BADE5",
"+ c #22AFE6",
"@ c #25B0E6",
"# c #2AB2E6",
"$ c #2EB3E8",
"% c #31B4E7",
"& c #38B6E7",
"* c #3DB8E7",
"= c #33B5E8",
"- c #3AB7E8",
"; c #3CB8E9",
": c #46BAE7",
"> c #4BBCE7",
", c #44BBE9",
"< c #4BBDEA",
"1 c #51BEE9",
"2 c #55C1EB",
"3 c #5BC3EB",
"4 c #62C6EC",
"5 c #6AC7EB",
"6 c #67C8EE",
"7 c #6CC9ED",
"8 c #74CCEE",
"9 c #7ACEEE",
"0 c #7FD0EF",
"q c #76CEF0",
"w c #7ACFF0",
"e c #7DD0F1",
"r c #84CFEC",
"t c #8CCFEA",
"y c #82D1EF",
"u c #8BD2EE",
"i c #94D3ED",
"p c #9CD3E9",
"a c #84D2F0",
"s c #8CD5F1",
"d c #92D7F1",
"f c #96D9F3",
"g c #9CDAF3",
"h c #B9DEEE",
"j c #A4DDF4",
"k c #A9DFF4",
"l c #AEE1F6",
"z c #B4E3F5",
"x c #BBE6F7",
"c c #BCE7F8",
"v c #C4E3EF",
"b c #C3E7F6",
"n c #C4E9F7",
"m c #CCEAF6",
"M c #C5E9F8",
"N c #CBECF9",
"B c #D3ECF6",
"V c #DAEDF5",
"C c #D2EEF9",
"Z c #D6F0FA",
"A c #DCF2FA",
"S c #E8EDEF",
"D c #EDF2F6",
"F c #E4F5FB",
"G c #EAF7FC",
"H c #EDF8FD",
"J c #F2F4F6",
"K c #F8F5F5",
"L c #F3FBFD",
"P c #FEFEFF",
"I c None",
/* pixels */
"IIIIIIIIIIIIII=--=IIIIIIIIIIIIII",
"IIIIIIIIII&ezAPPPPFxa;IIIIIIIIII",
"IIIIIIII;jLPPZcjlzZPPPl,IIIIIIII",
"IIIIIIIeLPC0;+ooXOO$6NPPsIIIIIII",
"IIIIIOzPF3X .oooOO+4,o3ZPc#IIIII",
"IIII+cPz$*8djgu4&oXyL,.+lPN#IIII",
"IIIIlPjOzPDmzzhBFx<.gnOOodPcIIII",
"IIIePcOO:2:4ydu52gLj#N6oOolPsIII",
"II&HG=.+3kDPPPPF, >FZubo9qOAP,II",
"IIgP7 4nmPPPPPv1oOo;LDJ,lN.3PlII",
"I$LZ=zA4kPFkjFPLd+Oo0PPs7H#ONP-I",
"I7PeyC@8Pu#oX#lLPzOO;LPm2L;XqPeI",
"IkP,,@&P8XOo@#o&zP8o#FPL3G2o-PzI",
"ING#oozlo+o5ZKfoOFz >PPL5A2o@ZA@",
"@FNOO-G-Xo8PG82@Xl9OCPDL7F;OocP$",
"=Pcoowb37#HL< O@O;o5PbuL5A#@olP=",
"=LxOolgzViPzX,#+O.@mP5=5yxo@ozP$",
"@FCOobuxKJH<&A#o29CPjOOXN0o@ocP=",
"INH#OByxPPs 3P4 3CAyOOX7F#oO@AZ@",
"IgP2XCukPP4X=DH7Oo+oOo:L0 7$;PzI",
"I3Pd ng9PPyoo6PPF5oo@7LzolGOePqI",
"I#GFOjN<PPCOOo2nLPnzAPV4nN,OZL&I",
"IIsP84P=nSPsXOo%pKPPPPVm8O 7PjII",
"II$GG20o9huPiOoxPPPPHl4+oO$FL-II",
"III6PNoo@C22AC839t94><7=OOcPeIII",
"IIIIgPz@.7F#OymFmxbBDPF2ojPlIIII",
"IIIIIjPN- zN@oO,4rdu7<O$cPcOIIII",
"IIIIIIgPLe$2#OOOoXX. OqGPkOIIIII",
"IIIIIII7FPAa<$OoOO#<sFPHqIIIIIII",
"IIIIIIII$sGPPLNcxmHPPHf=IIIIIIII",
"IIIIIIIIII#4jNFLLFNj6#IIIIIIIIII",
"IIIIIIIIIIIIII@$$@IIIIIIIIIIIIII"
};
