/* XPM */
static char *Sm6FAMlo[] = {
/* columns rows colors chars-per-pixel */
"64 64 103 2 ",
"   c #25AADF",
".  c #06A5E3",
"X  c #0BA6E3",
"o  c #0EA8E4",
"O  c #10A7E0",
"+  c #14AAE4",
"@  c #1CADE5",
"#  c #22AFE6",
"$  c #2AAEE2",
"%  c #26B0E6",
"&  c #2CB2E6",
"*  c #2EB3E8",
"=  c #34B4E6",
"-  c #3BB5E5",
";  c #3EB8E7",
":  c #34B6E8",
">  c #3AB7E8",
",  c #3CB9E9",
"<  c #50B0D9",
"1  c #69B5D9",
"2  c #70B8D9",
"3  c #42B5E4",
"4  c #42B9E7",
"5  c #4BBBE7",
"6  c #43BBE9",
"7  c #4BBDE9",
"8  c #54BEE7",
"9  c #52BFE9",
"0  c #55C1EC",
"q  c #5BC3EB",
"w  c #68C4E7",
"e  c #63C6EC",
"r  c #69C6EB",
"t  c #65C8EE",
"y  c #6BC9ED",
"u  c #73CBED",
"i  c #7BCDEC",
"p  c #7FD1EF",
"a  c #77CEF0",
"s  c #7ACFF0",
"d  c #7DD0F0",
"f  c #ABC9DD",
"g  c #BDCFDC",
"h  c #80C6E2",
"j  c #89C9E3",
"k  c #83CEEC",
"l  c #89CDE8",
"z  c #83D0EE",
"x  c #8CD3EE",
"c  c #9CD0E5",
"v  c #95D5ED",
"b  c #9AD6ED",
"n  c #9ED8EF",
"m  c #84D2F1",
"M  c #8BD5F2",
"N  c #93D6F1",
"B  c #95D9F3",
"V  c #9CDAF2",
"C  c #A2D9ED",
"Z  c #ABDCEF",
"A  c #B3D4E5",
"S  c #A3DDF3",
"D  c #AADEF2",
"F  c #B2DFF0",
"G  c #ACE1F5",
"H  c #B4E3F5",
"J  c #BBE5F5",
"K  c #BBE7F8",
"L  c #BFE8F8",
"P  c #C3D6DF",
"I  c #C4D9E4",
"U  c #CADCE5",
"Y  c #CAE1ED",
"T  c #DEE5EA",
"R  c #DAE8EF",
"E  c #C3E6F3",
"W  c #C5E9F6",
"Q  c #CCEAF5",
"!  c #C4EAF8",
"~  c #CBECF9",
"^  c #D4E7F0",
"/  c #D4EDF6",
"(  c #DDECF3",
")  c #D2EEF9",
"_  c #DAEFF8",
"`  c #DCF0F7",
"'  c #D6F0FA",
"]  c #DCF1FA",
"[  c #E6E8EB",
"{  c #ECEDEF",
"}  c #E3EEF3",
"|  c #EBEEF2",
" . c #E4F1F6",
".. c #EFF1F3",
"X. c #E4F4FB",
"o. c #EBF7FB",
"O. c #EDF8FD",
"+. c #F2F4F6",
"@. c #F5F6F8",
"#. c #FBF7F8",
"$. c #F3FAFD",
"%. c #FFFFFF",
"&. c None",
/* pixels */
"&.&.&.&.&.&.&.&.&.&.&.&.&.&.&.&.&.&.&.&.&.&.&.&.&.&.&.&.&.&.@ @ + @ &.&.&.&.&.&.&.&.&.&.&.&.&.&.&.&.&.&.&.&.&.&.&.&.&.&.&.&.&.&.",
"&.&.&.&.&.&.&.&.&.&.&.&.&.&.&.&.&.&.&.&.&.&.&.&.&.+ + # : > 6 7 0 6 , : % @ + &.&.&.&.&.&.&.&.&.&.&.&.&.&.&.&.&.&.&.&.&.&.&.&.&.",
"&.&.&.&.&.&.&.&.&.&.&.&.&.&.&.&.&.&.&.&.&.&.+ * 0 M G ~ X.$.$.%.$.$.$.O.' H N e : + + &.&.&.&.&.&.&.&.&.&.&.&.&.&.&.&.&.&.&.&.&.",
"&.&.&.&.&.&.&.&.&.&.&.&.&.&.&.&.&.&.&.+ % t H X.%.%.%.%.%.%.%.%.%.%.%.%.%.%.%.%.O.K u * + &.&.&.&.&.&.&.&.&.&.&.&.&.&.&.&.&.&.&.",
"&.&.&.&.&.&.&.&.&.&.&.&.&.&.&.&.&.+ * M ] %.%.%.%.%.%.%.%.%.%.$.$.%.%.%.%.%.%.%.%.%.%.o.B > + &.&.&.&.&.&.&.&.&.&.&.&.&.&.&.&.&.",
"&.&.&.&.&.&.&.&.&.&.&.&.&.&.&.&.# m X.%.%.%.%.%.%.O.~ D m u q 6 6 0 u m S ! O.%.%.%.%.%.%.$.B * + &.&.&.&.&.&.&.&.&.&.&.&.&.&.&.",
"&.&.&.&.&.&.&.&.&.&.&.&.&.&.+ 0 ) %.%.%.%.%.o.S t : @ + + + + @ @ @ + + + @ : q V X.%.%.%.%.%.X.y + &.&.&.&.&.&.&.&.&.&.&.&.&.&.",
"&.&.&.&.&.&.&.&.&.&.&.&.&.@ N %.%.%.%.%.' s = + + @ # # @ % # # # # # # # % @ + + & t ~ %.%.%.%.%.G * + &.&.&.&.&.&.&.&.&.&.&.&.",
"&.&.&.&.&.&.&.&.&.&.&.+ : ! %.%.%.%.X.a # + @ # % @ % % # # % % # # # # # # @ + + @ + @ t ) %.%.%.%.] 6 + &.&.&.&.&.&.&.&.&.&.&.",
"&.&.&.&.&.&.&.&.&.&.+ , ] %.%.%.%.S * + @ @ # @ @ @ @ @ # % @   # # # # @ % V K H 0 + # + # m $.%.%.%.O.q + &.&.&.&.&.&.&.&.&.&.",
"&.&.&.&.&.&.&.&.&.+ 6 X.%.%.%.o.t O O + @ # % = - 3 - & % @ + + + # # # @ @ q $.%.) & @ # @ + 7 ) %.%.%.$.q + &.&.&.&.&.&.&.&.&.",
"&.&.&.&.&.&.&.&.+ , X.%.%.%.' > . % q z H W ] o.$.#.@.X./ ! Z u 7 # + @ % % O w %.%.M + # # @ + & H %.%.%.$.q + &.&.&.&.&.&.&.&.",
"&.&.&.&.&.&.&.&.* ' %.%.%.! % @ i ` %.%.%.%.%.%.%.%.%.%.%.%.%.%.$.) x 4 + @ # + m %.$.7 + # # # @ @ S %.%.%.o.4 + &.&.&.&.&.&.&.",
"&.&.&.&.&.&.&.@ K %.%.%.! % + * ' %.%.%.$./ J C z i u u i v J / %.%.%.$.S 4 + @ + H %.J + # # # # @ + S %.%.%.' * &.&.&.&.&.&.&.",
"&.&.&.&.&.&.+ M %.%.%.) & @ # @ ; Z c e - + O O + % = = & # + + 6 k / %.%.$.b & O = X.%.e + # # # # @ @ J %.%.%.G + &.&.&.&.&.&.",
"&.&.&.&.&.&.0 $.%.%.o.4 + # # # @ + . X # q x E ` $.#.#.#. .Q z # O % w ' %.%.' q . u %.W # # # # + % @ * ' %.%.%.t + &.&.&.&.&.",
"&.&.&.&.&.@ ! %.%.%.t o % # # # + @ 8 C X.%.%.%.%.%.%.%.%.%.%.%.V + @ + & V %.%.#.x + E %.e + % + t S @ + 7 $.%.%.] * &.&.&.&.&.",
"&.&.&.&.+ u %.%.%.G + % % @ + # t W %.%.%.%.%.%.%.%.%.%.%.%.#./ e @ % # @ + z $.%.%.b 2 %.! @ + 0 O.$.> + + N %.%.%.B + &.&.&.&.",
"&.&.&.&.& ' %.%.o.: @ % + @ y / %.#.+.%.%.%.%.%.%.%.%.#.Y h 3 @ @ % # # # @ + M %.%.%.I T %.q X s %.%.y + # # ' %.%.$.> &.&.&.&.",
"&.&.&.+ a %.%.%.M O @ + 7 Q %.%.H j | %.%.%.%.%.%.%.%.#. .H u & + @ % # # # # @ K %.%.%.@.%.S o 6 $.%.S + # + t %.%.%.N + &.&.&.",
"&.&.&.@ ! %.%.X.* o * S $.%./ q = Q %.%.%.%.%.%.%.%.%.%.%.%.%.X.i @ @ # # # # + 4 $.%.%.%.%.X.* % ] %.! @ # @ # ~ %.%.X.* &.&.&.",
"&.&.&.7 %.%.%.B X w X.%.%.C # + E %.%.%.$.H k 8 8 r Z $.%.%.%.%.%.L - + # # # # + Z %.%.%.%.%.e + H %.O.: @ # + u %.%.%.y + &.&.",
"&.&.+ N %.%.$.6 # X.%.O.r + O b %.%.%.Z 6 + + + + + + 9 X.%.%.%.%.%.] , @ # # # + w %.%.%.%.%.S . B %.$.4 @ # # * X.%.%.H @ &.&.",
"&.&.# ) %.%.! @ * $.` 6 + + e %.%.o.w + + # # # # # # O q G  .%.%.%.%./ & @ # # @ - $.%.%.%.%.) + u %.%.7 + # # + G %.%.O.: &.&.",
"&.&., $.%.%.M o : G - + @ * ] %.o.7 + @ # # # % # # @ @ @ + # u X.%.%.%.M O % # @ & ` %.%.%.%.$.= q %.%.e + # # + e %.%.%.q &.&.",
"&.&.y %.%.%.0 + # # @ # + x %.%.q O # # # # # @ + # - % + @ @ + = Q %.%.X.* @ % @ * X.%.%.%.%.%.5 6 %.%.t + # # @ : O.%.%.M + &.",
"&.+ B %.%.X.* @ % @ # @ : o.%.M + # # # # # + - B / $.( N * @ % + : X.%.%.9 + % @ 5 %.%.%.%.%.%.e - #.%.t + # # @ # ~ %.%.H @ &.",
"&.@ H %.%.! @ # @ % # + M %.' % @ # # % # + q X.%.%.%.%.%.K # @ # O x %.%.9 + % o v %.%.%.%.%.%.w - %.%.t + # # # + G %.%.~ # &.",
"&.@ ! %.%.D + # % % # & ] %.i + # # # # + r $.%.%.%. .b M p % % % + 0 %.X.= @ @ y #.%.%.| %.%.%.y 3 %.%.7 @ # % # + M %.%.o.: &.",
"@ % ' %.%.B + # % @ + q %.o.: + + # % + 7 O.%.%.%.C * + + + @ % # @ 7 %.N + + 9 %.%.%.$.f #.%.%.8 5 %.#., @ # # # + a %.%.$.: + ",
"+ : o.%.%.d + # % # + V %.F o 4 t # @ # W %.%.%.S + @ # % # # @ # @ : y % @ + M %.%.%.Q 3 @.%.%.- w %.X.* @ # # # + t %.%.$.> + ",
"@ : O.%.%.d + % @ # % ) %.i + _ %.7 o u %.%.%.] & @ # # # # # % # % # + # # # / %.%.%.k o ! %. .+ N %.K @ # # # # + q %.%.$.> + ",
"+ : O.%.%.d + # # @ ; $.%.4 9 %.%.b + Q %.%.%.x + # @ + # # # # # # @ % % + y %.%.%.X.: + u %.z o J %.M + # # # # + q %.%.$.: @ ",
"@ * X.%.%.M + # # @ q %.$.% l %.%.Y 1 %.%.%.$.5 + @ 9 n & # # # # # % # o ; X.%.%.%.i O # # 9 @ = o.%.8 @ # # # # + t %.%.$.: + ",
"&.# ~ %.%.S + % # O u %.} @ S %.%.| g %.%.%.Q # @ *  .` # # # # @ @ + @ q  .%.%.%.H @ @ # # + + u %.] & # # # # # + a %.%.$.> + ",
"&.@ ! %.%.H + # % + b %./ + Z %.%.%...%.%.Q * @ + y %.o.* @ # @ 6 J H / %.%.%.%.W * @ # # # # @ E %.N + # # # # # + M $.%.O.: &.",
"&.+ G %.%.) # # % + n %.Q + Z %.%.%.%.%.$.0 + # + B %.%.q + # # : / %.%.%.%.%.C % @ # # % % + w %.$.6 + # # # # % + G %.%.~ # &.",
"&.+ m %.%.$.: @ # + S %./ + S %.%.%.%.%./ @ @ % O z %.%.Q # + # @ = z K W Z 8 @ @ # # # @ + *  .%.G @ # # @ @ # @ % ' %.%.G + &.",
"&.&.q %.%.%.q + # + C %.} + x %.%.%.%.%.H + # # @ 9 %.%.%.H * + @ @ + + @ + + % # # % # @ @ G %.$.6 @ @ @ 7 * # @ , $.%.%.m + &.",
"&.&.: O.%.%.B O # + V %.$.% w %.%.%.%.%.G + # # # + H %.%.%.] i : @ @ % @ # # % # # # @ @ V %.%.v + @ + a X.: @ + a %.%.%.0 &.&.",
"&.&.@ L %.%.' # @ + M %.#.; - $.%.%.%.%.Q @ @ % # @ > X.%.%.%.%.o.E 5 + % % # @ % @ + = H %.%.~ % + @ v %.o.* @ + H %.%.X.% &.&.",
"&.&.+ d %.%.%.0 @ + u %.%.q + / %.%.%.%.$.- @ # # # + 7 X.%.%.%.%.%.` 6 + O + + + * i X.%.%.$.7 X * H %.%.) % @ > $.%.%.G + &.&.",
"&.&.&.> O.%.%.G + + q %.%.k . B %.%.%.%.%.z + # # # # + 4 W %.%.%.%.%.$.H z a z F X.%.%.%.#.r . q ' %.%.S = @ + m %.%.%.q &.&.&.",
"&.&.&.+ H %.%.$., + > $.%.H X 0 %.%.%.%.%.' & @ # # # # @ @ i ` %.%.%.%.%.%.%.%.%.%.%.%.%.i = D %.%.) q O @ @ % ] %.%.' % &.&.&.",
"&.&.&.&.q %.%.%.S + # ~ %.] % @ Q %.{ %.%.%.N + # # # # # # + @ q A [ #.%.%.%.%.%.%.%.%.I c O.%.o.i # + # # o d %.%.%.m + &.&.&.",
"&.&.&.&.@ L %.%.$.0 . S %.$.4 X i %.P U %.%.%.u O # # # # # @ 4 i A [ %.%.%.%.%.%.%.%.%.#.%.o.x = + # # # @ * X.%.%.] & &.&.&.&.",
"&.&.&.&.&.0 %.%.%.! O q %.H # @ = o.+.< Z %.%.$.u + @ # # @ D %.%.%.%.%.%.%.%.%.%.%.%.%._ x = + @ # # # % + S %.%.%.s + &.&.&.&.",
"&.&.&.&.&.+ G %.%.%.M + i * @ % + x %.b o x %.%.%.n # + @ # W %.%.%.%.%.%.%.%.%.%.X.D e # O @ % # # # # + q %.%.%.~ # &.&.&.&.&.",
"&.&.&.&.&.&.: X.%.%.%.q . @ # # @ = o.%.5 . q ] %.%._ y $ o @ u F Q } | [ Q F v 8 % . . @ # @ # # # # + > X.%.%.$.0 &.&.&.&.&.&.",
"&.&.&.&.&.&.+ t %.%.%.X.6 + # # # + x %./ # o * b $.%.%._ v 0 $ O +   $ @ O X O # ; w B Q H : @ # # + * ~ %.%.%.M + &.&.&.&.&.&.",
"&.&.&.&.&.&.&.+ B %.%.%.] > + # # @ * ' %.v + @ + - V @.%.%.%.o.^ H V B V V F E  .%.%.%.%.%.' : @ + & ! %.%.%.K @ &.&.&.&.&.&.&.",
"&.&.&.&.&.&.&.&.@ J %.%.%.] 6 + # # + t %.%.r + % @ + : i K $.%.%.%.%.%.%.%.%.%.%.%.%.%.@.H i % + & ! %.%.%.] * &.&.&.&.&.&.&.&.",
"&.&.&.&.&.&.&.&.&.% ! %.%.%.o.q + @ # @ H %.O.7 + % # @ + @ > q x S E R } } ( ^ F n z 8 : @ + o 6 ' %.%.%.X., + &.&.&.&.&.&.&.&.",
"&.&.&.&.&.&.&.&.&.&.* ! %.%.%.$.M @ + @ - o.%.X.6 @ # # % @ @ + + + @   & & $ # @ + + @ @ + + a O.%.%.%.X., + &.&.&.&.&.&.&.&.&.",
"&.&.&.&.&.&.&.&.&.&.&.% H %.%.%.%.W 7 + + 7 m M 0 @ # # % % @ @ # % # @ @ @ @ # # # # @ + > H %.%.%.%.' > + &.&.&.&.&.&.&.&.&.&.",
"&.&.&.&.&.&.&.&.&.&.&.&.@ B %.%.%.%.$.S , o . + @ % # # @ % % % # # # # # # % % @ @ + : B $.%.%.%.%.H * &.&.&.&.&.&.&.&.&.&.&.&.",
"&.&.&.&.&.&.&.&.&.&.&.&.&.+ e X.%.%.%.%.$.G 0 @ + + @ # % @ % % # # % # @ @ + + # 7 V O.%.%.%.%.$.m @ &.&.&.&.&.&.&.&.&.&.&.&.&.",
"&.&.&.&.&.&.&.&.&.&.&.&.&.&.+ : G $.%.%.%.%.%.) N q : # + + + + + + + + # : 0 M ) $.%.%.%.%.%.! 7 + &.&.&.&.&.&.&.&.&.&.&.&.&.&.",
"&.&.&.&.&.&.&.&.&.&.&.&.&.&.&.&.+ 0 L %.%.%.%.%.%.%.O.~ G B s u u p V G ~ o.%.%.%.%.%.%.%.) t @ &.&.&.&.&.&.&.&.&.&.&.&.&.&.&.&.",
"&.&.&.&.&.&.&.&.&.&.&.&.&.&.&.&.&.&.+ q H $.%.%.%.%.%.%.%.%.%.%.%.%.%.%.%.%.%.%.%.%.$.! t @ + &.&.&.&.&.&.&.&.&.&.&.&.&.&.&.&.&.",
"&.&.&.&.&.&.&.&.&.&.&.&.&.&.&.&.&.&.&.&.+ > m ! $.%.%.%.%.%.%.%.%.%.%.%.%.%.%.$.~ M 6 @ + &.&.&.&.&.&.&.&.&.&.&.&.&.&.&.&.&.&.&.",
"&.&.&.&.&.&.&.&.&.&.&.&.&.&.&.&.&.&.&.&.&.&.+ @ : q M G ! ' ' O.o.X.' ! G M e > @ + &.&.&.&.&.&.&.&.&.&.&.&.&.&.&.&.&.&.&.&.&.&.",
"&.&.&.&.&.&.&.&.&.&.&.&.&.&.&.&.&.&.&.&.&.&.&.&.&.&.+ + @ # * : : * % @ + + &.&.&.&.&.&.&.&.&.&.&.&.&.&.&.&.&.&.&.&.&.&.&.&.&.&.",
"&.&.&.&.&.&.&.&.&.&.&.&.&.&.&.&.&.&.&.&.&.&.&.&.&.&.&.&.&.&.+ + + &.&.&.&.&.&.&.&.&.&.&.&.&.&.&.&.&.&.&.&.&.&.&.&.&.&.&.&.&.&.&."
};
