/* XPM */
static char *xUuBiu3F[] = {
/* columns rows colors chars-per-pixel */
"16 16 175 2 ",
"   c #09A6E3",
".  c #0BA7E4",
"X  c #12A9E4",
"o  c #16ABE4",
"O  c #19ACE5",
"+  c #1FAEE6",
"@  c #23AFE5",
"#  c #20AEE6",
"$  c #21AEE6",
"%  c #21AFE6",
"&  c #22AFE6",
"*  c #23B0E6",
"=  c #25B0E6",
"-  c #27B0E6",
";  c #2AB2E7",
":  c #2CB2E6",
">  c #2DB3E7",
",  c #32B4E7",
"<  c #32B4E8",
"1  c #35B5E8",
"2  c #35B6E8",
"3  c #36B6E8",
"4  c #39B7E8",
"5  c #3AB8E8",
"6  c #3EB9E8",
"7  c #3FBAEA",
"8  c #41B9E9",
"9  c #40BAE9",
"0  c #41BAE9",
"q  c #42BBE9",
"w  c #43BBE9",
"e  c #44BCEA",
"r  c #48BCE9",
"t  c #4BBCE8",
"y  c #4ABDEA",
"u  c #4BBEEB",
"i  c #4FBEE9",
"p  c #4CBEEA",
"a  c #4EBEEB",
"s  c #52C0EB",
"d  c #56C1EB",
"f  c #56C2EB",
"g  c #51C0EC",
"h  c #52C0EC",
"j  c #59C2EB",
"k  c #59C3EC",
"l  c #5BC4EC",
"z  c #5CC4EC",
"x  c #5DC4EC",
"c  c #60C5EB",
"v  c #61C5ED",
"b  c #62C5EC",
"n  c #64C7ED",
"m  c #65C7ED",
"M  c #65C8EE",
"N  c #68C8ED",
"B  c #69C8EE",
"V  c #68C9EE",
"C  c #6BC9EE",
"Z  c #6ECAEE",
"A  c #6FCBEF",
"S  c #70CAED",
"D  c #70CBEE",
"F  c #70CCEF",
"G  c #73CCEE",
"H  c #72CCEF",
"J  c #75CDEF",
"K  c #77CDEF",
"L  c #77CEEF",
"P  c #7BCFEF",
"I  c #7ED0EF",
"U  c #75CDF0",
"Y  c #76CDF0",
"T  c #77CEF0",
"R  c #79CEF0",
"E  c #79CFF0",
"W  c #7ACFF0",
"Q  c #7BD0F1",
"!  c #86D1EE",
"~  c #82D1F0",
"^  c #83D2F1",
"/  c #84D2F0",
"(  c #85D2F1",
")  c #84D3F1",
"_  c #86D3F1",
"`  c #8AD2F0",
"'  c #89D4F0",
"]  c #8BD4F1",
"[  c #89D5F2",
"{  c #8AD5F2",
"}  c #8CD5F1",
"|  c #8DD5F1",
" . c #8FD6F1",
".. c #8DD6F2",
"X. c #91D6F1",
"o. c #90D7F1",
"O. c #92D7F1",
"+. c #93D8F2",
"@. c #92D8F3",
"#. c #94D8F2",
"$. c #94D8F3",
"%. c #95D9F3",
"&. c #96D9F2",
"*. c #96D9F3",
"=. c #97D9F3",
"-. c #98D9F1",
";. c #98D9F3",
":. c #99DAF3",
">. c #9DDAF2",
",. c #9CDBF4",
"<. c #9EDCF4",
"1. c #A1DCF3",
"2. c #A4DDF3",
"3. c #A5DDF3",
"4. c #A7DDF2",
"5. c #A1DDF5",
"6. c #A2DDF4",
"7. c #A7DFF5",
"8. c #A9DFF3",
"9. c #AADFF3",
"0. c #ADDDF0",
"q. c #ACDEF2",
"w. c #AEDFF3",
"e. c #A8DFF4",
"r. c #AFE0F2",
"t. c #AEE0F3",
"y. c #AAE0F6",
"u. c #ADE0F4",
"i. c #AFE2F6",
"p. c #B1E1F3",
"a. c #B0E2F5",
"s. c #B1E3F6",
"d. c #B5E3F4",
"f. c #B6E3F4",
"g. c #B2E4F6",
"h. c #B5E4F5",
"j. c #B6E4F6",
"k. c #BBE4F4",
"l. c #B8E5F7",
"z. c #BBE5F6",
"x. c #B8E6F7",
"c. c #B9E6F7",
"v. c #BBE6F6",
"b. c #BAE6F7",
"n. c #BFE7F7",
"m. c #BEE8F7",
"M. c #BDE7F8",
"N. c #BFE8F8",
"B. c #C1E7F6",
"V. c #C4E8F6",
"C. c #CCEAF6",
"Z. c #CCEBF7",
"A. c #C0E8F8",
"S. c #C4EAF8",
"D. c #C9EBF8",
"F. c #D8EEF7",
"G. c #D1EDF8",
"H. c #D1EEFA",
"J. c #D2EEFA",
"K. c #D2EFFA",
"L. c #D3EFFA",
"P. c #D7EFF8",
"I. c #D4EFFB",
"U. c #D6F0FA",
"Y. c #DAF1FA",
"T. c #E0F0F6",
"R. c #E3F1F7",
"E. c #E1F4FB",
"W. c #F3FAFD",
"Q. c #F7FCFD",
"!. c #FAFDFE",
"~. c #FCFDFE",
"^. c #FEFEFE",
"/. c white",
"(. c None",
/* pixels */
"(.(.(.(.(.(.) 5.5.) (.(.(.(.(.(.",
"(.(.(.(.s.c.{ C A $.c.c.(.(.(.(.",
"(.(.h I.X.d i q + < n M K.z (.(.",
"(.(.K.y S 4.p.w.:.! X.@ q U.(.(.",
"(.s.P q w.W.^.k.O C F.` C R c.(.",
"(.S.P +.Z.H m K.&.  s.Y.5.4 A.(.",
"Q ,.& X.2 + I r h.s X.^.9.3 ..) ",
":.Y 4 X.: Z.) & < j I.C.9.: H <.",
"&.H d f.T.u.i & 5 c..., &.X P ,.",
"J +.b s.^.6 +...j b   S S @ &.) ",
"(.N.A 4.!.m & M.z.n 1.B...l N.(.",
"(.y.9.j w.B.6 6 R.!.E.! ; U h.(.",
"(.(.K.y y { ! >.w.w.4.s q I.(.(.",
"(.(.(.K.) J o = q y u { K.a (.(.",
"(.(.(.(.y.A.<.R G X.A.s.(.(.(.(.",
"(.(.(.(.(.(.Y *.;.R (.(.(.(.(.(."
};
